<svg id="Layer_1" data-name="Layer 1" xmlns="http://www.w3.org/2000/svg" viewBox="0 0 360 360"><title>Artboard 1_4</title><path d="M217.59,199.93c.24,5.55-2.47,8.71-8.46,8.88,0,.33,0,.68-.06,1a7.45,7.45,0,0,1-3,5.33,6.66,6.66,0,0,1-5,1.72c-.64-.07-1.06.21-1,1a9.92,9.92,0,0,1-.07,1.44,5.85,5.85,0,0,1-1.73,3.12,14.76,14.76,0,0,0-1.22,1.28c-.11.11-.18.29-.31.34a17.1,17.1,0,0,1-3.41,1,5.94,5.94,0,0,1-5.46-2.38c-.29-.35-1-.38-1.79-.66l2.68-3.3c1-1.17,2-2.32,2.9-3.5s1.63-2.1,2.42-3.16c.66-.88.44-4.44-.3-5.29a.81.81,0,0,1-.2-.39c-.33-1.69-1.71-2.38-2.92-3.36-1.52-1.23-3.13-.72-4.71-.77-1,0-1.56-.31-1.54-1.43,0-1.38-.77-2.29-1.6-3.36s-2.16-1.47-3.06-2.4a1.44,1.44,0,0,0-.9-.22c-1.47,0-2.95,0-4.49,0a16.71,16.71,0,0,0-1.18-3.7,18,18,0,0,0-3-3.57,12.91,12.91,0,0,0-2.65-1.74,2.53,2.53,0,0,0-1.18-.14c-1.63,0-3.26,0-4.73,0a34.45,34.45,0,0,0-2.29-5.14c-.63-1-2-1.49-3-2.21-2.28-1.65-4.85-.75-7.29-.75a4.58,4.58,0,0,0-2.42,1.29,43.54,43.54,0,0,0-3.44,3.22c-1,1-1.88,2-2.74,3.08-.54.65-.72.77-1.29-.08a32.76,32.76,0,0,0-2.85-3.17c-.61-.7-1.08-1.52-1.68-2.22s-1.42-1.44-2.06-2.21c-.85-1-2-1.78-2.6-3.14a7.79,7.79,0,0,0-2-2.31,1.86,1.86,0,0,1-.33-2.58,6.9,6.9,0,0,0,1.61-2.52,8.81,8.81,0,0,1,1.49-2.2,13.53,13.53,0,0,0,1-1.51,24.65,24.65,0,0,1,2-3.85c1.16-1.45,1.78-3.16,2.77-4.67.78-1.19,1.69-2.3,2.44-3.5.51-.83.82-1.77,1.26-2.64a11.84,11.84,0,0,1,.94-1.44c.49-.69,1-1.36,1.52-2a2.54,2.54,0,0,1,3-.42c.15.11.27.32.44.36,1.76.43,3.52,1.17,5.29,1.19,6.28.09,12.56-.07,18.83-.13,1.08,0,2.16,0,3.23.09a1,1,0,0,1,.65.5c.05.1-.25.4-.4.6l-1.56,2c-.37.49-.71,1-1.12,1.46-.79.87-1.61,1.72-2.44,2.56-.25.26-.64.4-.87.67a36.8,36.8,0,0,0-3.55,4.28c-.7,1.12-2.24,1.77-2.06,3.42-1.91,2.43-.68,5.24-.85,7.87a4.81,4.81,0,0,0,1,2.4,20.32,20.32,0,0,0,1.67,2.06,11.76,11.76,0,0,0,3.8,2.72c2.4,1.3,4.81.72,7.19.64a4.7,4.7,0,0,0,2.94-1.48c.47-.48,1.35-.27,1.76-1.13a9.09,9.09,0,0,1,1.77-2c.55-.57,1.18-1.09,1.7-1.69.68-.77,1.27-1.6,1.92-2.38.85-1,1.72-2,2.58-3,1-1.17,2-2.36,3-3.5.9-1,1.85-1.89,2.81-2.8a.73.73,0,0,1,.7,0c1,.88,1.9,1.83,2.88,2.72s2,1.72,3,2.62c1.18,1.08,2.3,2.23,3.51,3.28.9.78,1.91,1.43,2.84,2.17s1.74,1.44,2.59,2.17,1.91,1.62,2.84,2.46,1.8,1.65,2.71,2.46q1.13,1,2.28,2c1.06.9,2.13,1.78,3.21,2.67s2.42,1.92,3.56,3a46.05,46.05,0,0,1,3.64,3.62c1.22,1.39,1.08,4.86.47,6.56a8.19,8.19,0,0,1-2.08,3.13,3.89,3.89,0,0,1-2.05,1.49,26.79,26.79,0,0,1-2.95.7A16.3,16.3,0,0,1,217.59,199.93Z"/><path d="M228.07,144.41c1.12.66.8,2.28,2,2.86.09,0,.14.27.14.41,0,1.06.92,1.58,1.44,2.33a12.54,12.54,0,0,1,1.32,2.18,4.59,4.59,0,0,0,1.67,2.44c.08,0,.11.21.11.32,0,1.19,1,1.75,1.53,2.6.43.69.81,1.41,1.25,2.09.53.83,1.15,1.61,1.63,2.46s.79,1.74,1.22,2.59c.24.46.6.87.88,1.32.84,1.33,1.73,2.63,2.44,4a1.86,1.86,0,0,1-.1,1.68c-1.55,1.75-3.28,3.34-4.83,5.08-.82.92-1.41,2-2.14,3a9.29,9.29,0,0,1-1.06,1.2c-.76.74-1.63,1.38-2.31,2.18-.9,1-1.66,2.21-2.44,3.27-1.71-1.54-3.36-3-5-4.52-1.43-1.25-2.93-2.43-4.33-3.72-.83-.75-1.48-1.71-2.32-2.46s-1.78-1.27-2.64-1.95c-.64-.5-1.2-1.09-1.82-1.62l-3.49-3c-1-.85-2-1.74-3-2.56-2-1.65-4.06-3.24-6.06-4.9-.78-.64-1.44-1.42-2.19-2.08-1.3-1.15-2.63-2.25-3.94-3.38a13.73,13.73,0,0,1-1.55-1.5,1.46,1.46,0,0,0-2,0c-.67.84-1.44,1.6-2.15,2.41-1.44,1.64-2.85,3.31-4.3,4.94-.74.84-1.55,1.61-2.28,2.46-1,1.17-2,2.4-3,3.58-.83,1-1.71,1.89-2.58,2.82a7.66,7.66,0,0,1-1.19,1.16,11.75,11.75,0,0,1-2.7,1.59,12.53,12.53,0,0,1-2.62.15c-2.19.23-3.76-1.08-5.36-2.22a3.25,3.25,0,0,1-1.11-1.77c-.38-1.44-1.51-2.77-.94-4.37a20.53,20.53,0,0,1,1.46-3,22,22,0,0,1,1.21-1.87,14.07,14.07,0,0,1,1.12-1.54c1.13-1.24,2.35-2.4,3.46-3.66,1.28-1.44,2.45-3,3.74-4.43.75-.82,1.68-1.46,2.47-2.24.41-.41.63-1,1-1.45.88-1,1.83-2,2.7-3a5.63,5.63,0,0,1,4-2c.63-.07,1.43-.71,1.83-.49,1.37.75,3,.18,4.18.81,1.32.74,2.81.34,3.91,1,1.28.73,2.57.55,3.83.85,1.65.38,3.21,1.07,4.85,1.49.95.24,2,.07,3,.32a30.54,30.54,0,0,0,9.66.69,42.56,42.56,0,0,0,6.54-.93,27.77,27.77,0,0,0,3.86-1.51A5.11,5.11,0,0,1,228.07,144.41Z"/><path d="M246.21,127c.79,1.1,1.42,1.94,2,2.8a9.6,9.6,0,0,1,1.18,2,6,6,0,0,0,1.74,2.71c.62.54.77,1.61,1.17,2.42a15.71,15.71,0,0,0,.9,1.53c.83,1.32,1.71,2.62,2.52,4,.45.74.73,1.59,1.18,2.33.67,1.12,1.43,2.19,2.15,3.28.12.18.36.32.4.51a7.44,7.44,0,0,0,1.8,3.06,20.73,20.73,0,0,1,1.17,2.36c.65,1.11,1.4,2.16,2.08,3.26.51.82,1,1.68,1.47,2.51.29.47.81.89.92,1.39.13.67.52,1.49-.73,1.86a4.49,4.49,0,0,0-2.5,1.67c-.6,1-2.07.39-2.41,1.64-.08.31-.66.51-1,.71-.89.47-1.81.9-2.7,1.37-.42.22-1,.41-1.16.77-.49,1.07-1.71.94-2.5,1.55s-2.33,1.8-3.87,1.14a3.11,3.11,0,0,1-1.46-1.09c-.61-1-1.55-1.77-2-3s-1.62-2.22-2.39-3.37a14.14,14.14,0,0,1-1.11-2.28,3.73,3.73,0,0,0-1.58-2.24c-.1,0-.11-.28-.19-.41-.51-.89-1-1.78-1.53-2.68s-.93-1.8-1.41-2.69c-.12-.21-.39-.33-.52-.54-.73-1.2-1.43-2.42-2.14-3.63-.3-.53-.57-1.09-.9-1.6a22.5,22.5,0,0,1-2.06-3.69c-.51-1.19-1.68-2.08-2.36-3.23-.37-.62-.07-1.6-1-2.07a6.53,6.53,0,0,1,.47-1.35c0-.09.25-.14.25-.21-.07-1.8,1.48-2,2.58-2.66s2.2-1.65,3.35-2.39c.82-.52,1.76-.84,2.6-1.32a17.77,17.77,0,0,0,1.73-1.26c.09-.07.11-.24.19-.28.88-.39,1.77-.73,2.63-1.15.58-.29,1.42-.57,1.6-1C245.18,126.6,245.92,127.1,246.21,127Z"/><path d="M120.23,172.16l-1.28-.89a.83.83,0,0,0-.32-.14,2,2,0,0,1-1.61-.86c-.27-.39-1.28-.63-1.93-1.06-1.6-1-3.43-1.74-4.92-2.91-1-.77-2.14-1.11-3.12-1.8s-1.71-1.18-2.53-1.81c-.13-.11-.13-.45-.11-.68a5.67,5.67,0,0,1,1.57-3c.52-.65.65-1.68,1.25-2.2.79-.7.63-1.84,1.58-2.51.42-.29.63-1.37,1.16-2a22.28,22.28,0,0,0,1.6-2.44,16.25,16.25,0,0,1,1.13-1.95c.7-.84.91-1.92,1.68-2.77,1-1.06,1.36-2.58,2.11-3.84s1.56-2.27,2.35-3.4a1.71,1.71,0,0,0,.21-.26c.66-1.33,1.25-2.7,2-4s1.61-2.16,2.33-3.3a21.46,21.46,0,0,0,1.34-2.72c.24-.54,1.41-1,1.61-.49.45,1.09,1.62,1,2.34,1.65a20.17,20.17,0,0,0,3.45,2.18c.88.52,1.78,1,2.66,1.52.61.35,1.54.59,1.72,1.09.3.83.9.58,1.36.83.67.37,1.19,1.16,1.88,1.31,1.57.34,1.25,2,2.12,2.74a.58.58,0,0,1,0,.57c-.71.78-.46,2-1.32,2.74a7.7,7.7,0,0,0-1.26,2.08,41.39,41.39,0,0,1-2.86,4.93c-.78,1-1.19,2.18-1.85,3.22-.77,1.2-1.64,2.34-2.43,3.52-.4.6-.7,1.27-1.07,1.89L129,161c-.57,1-1.1,1.95-1.67,2.92-.25.44-.51.87-.8,1.28a9,9,0,0,0-1.57,2.3,7.42,7.42,0,0,1-2,3C122.28,171.27,121.64,172.21,120.23,172.16Z"/><path d="M158,187.15a23.1,23.1,0,0,1-1.4,3.73,13.39,13.39,0,0,1-2.14,2.19c-.79.82-1.53,1.69-2.29,2.53l-4.32,4.77-2.2,2.46c-.05.06-.07.18-.12.19-1.79.19-3.49,2.11-5.42.25-.41-.39-1.13-.44-1.58-.81a5.73,5.73,0,0,1-1.91-5.73,4,4,0,0,1,.91-1.72c.8-1,1.71-1.93,2.54-2.92,1-1.16,1.9-2.37,2.91-3.51,1.45-1.62,3.2-3,4.36-4.82a7.31,7.31,0,0,1,3.32-2.43,3.17,3.17,0,0,1,3.64.37c.47.47,1.16.47,1.73,1a4.83,4.83,0,0,1,1.67,4.39Z"/><path d="M150.34,205a5,5,0,0,1,1.72-3.91c1.6-1.73,3.1-3.55,4.63-5.35a42,42,0,0,1,3.77-4.4,6.67,6.67,0,0,1,4.72-2,5.41,5.41,0,0,1,3.55,2,4.92,4.92,0,0,1,1.75,4.33,11.21,11.21,0,0,1-1.49,3c-.8,1-1.44,2.14-2.24,3.16-.62.78-1.38,1.45-2.08,2.17s-1.59,1.55-2.31,2.39c-1.19,1.38-2.05,3.19-3.83,3.86a10.62,10.62,0,0,1-3.54.24c-1.85,0-2.76-1.25-3.82-2.56A4.4,4.4,0,0,1,150.34,205Z"/><path d="M176.3,198.55c3,0,5.36,2.18,5.14,4.69a6.6,6.6,0,0,1-1.75,3.5c-.6.72-1.2,1.44-1.82,2.15s-1.5,1.68-2.24,2.54c-1.09,1.26-2.22,2.49-3.24,3.81a4.74,4.74,0,0,1-2,1.75,8.61,8.61,0,0,1-2.24.9c-1.54.24-2.55-.69-3.6-1.31-1.61-1-1.91-4.49-.66-6,.83-1,1.85-1.89,2.72-2.88.41-.46.64-1.07,1-1.55.82-1,1.69-2,2.53-3a22,22,0,0,1,2.28-2.69C173.64,199.48,174.67,198,176.3,198.55Z"/><path d="M189.54,206.89c.37.65.62,1.17.93,1.64a2.76,2.76,0,0,1-.33,2.9c-.77.94-1.42,2-2.2,2.93s-1.53,1.67-2.28,2.52a21.58,21.58,0,0,1-2.23,2.52c-.87.71-1,2.26-2.52,2.24-.53,0-1.1.71-1.57.63a4.44,4.44,0,0,1-2.29-1,2.67,2.67,0,0,1-1.12-2.53,3.4,3.4,0,0,0,0-1.31c-.28-1.21.85-1.65,1.29-2.45a10.15,10.15,0,0,1,1.38-1.57c.91-1,1.84-2,2.74-3s1.92-2.12,2.81-3.25a3.23,3.23,0,0,1,4.63-.53A2.36,2.36,0,0,0,189.54,206.89Z"/></svg>