<svg id="Layer_1" data-name="Layer 1" xmlns="http://www.w3.org/2000/svg" viewBox="0 0 360 360"><title>Artboard 1_3</title><path d="M140.76,203.18H104.42c-9.64,0-13.14-3.53-13.14-13.21q0-31.32,0-62.66c0-8,4-12,11.94-12,34.92,0,69.85,0,104.77,0a12.76,12.76,0,0,1,10.5,4.63c3.85,4.51,7.82,8.93,11.94,13.2a7,7,0,0,0,4.28,2c9.36.45,15.48,4.83,17.44,13.92,2.8,12.91,5.2,25.92,7.3,39a11.59,11.59,0,0,1-2.22,7.9q-32.39,42.68-65.14,85.05c-4,5.15-10,6-15.11,2.07q-26.4-20.11-52.67-40.42c-5.26-4.07-5.88-10-1.82-15.39,5.22-6.93,10.55-13.77,15.82-20.65C139,205.66,139.63,204.74,140.76,203.18ZM254.29,189.8c-.27-1.19-.41-1.75-.51-2.3q-3.18-17.15-6.34-34.27c-1.77-9.65-6.08-13.09-15.87-12.39-11.59.83-23.19,1.7-34.76,2.81a8.07,8.07,0,0,0-5.13,2.72q-32.44,41.94-64.62,84.09c-2.41,3.14-2.13,5.55,1,7.94q26,20.06,52.11,40c2.94,2.25,5.31,1.81,7.71-1.07.73-.87,1.39-1.81,2.09-2.71q30.81-40.17,61.62-80.35A44.92,44.92,0,0,0,254.29,189.8Zm-29.2-54.11c-4-4.45-7.39-8.56-11.18-12.26a8.91,8.91,0,0,0-5.58-2.47c-35-.14-70.05-.11-105.08-.1-4.73,0-6.41,1.65-6.41,6.37q0,32,0,64c0,4.73,1.67,6.38,6.38,6.39,13,0,26-.05,39,.06a5.3,5.3,0,0,0,4.81-2.42q17.18-22.6,34.54-45.09c10.32-13.38,6.92-11.48,24.14-12.88C211.92,136.79,218.12,136.27,225.09,135.69Z"/><path d="M182.82,244.81c-.45,7-4.15,10.41-7.48,13.92-.48.51-2.69.08-3.6-.6-7.48-5.56-14.83-11.3-22.25-16.95-2-1.54-2.4-3.2-.72-5.2a5.47,5.47,0,0,0,.41-.54c6.59-10,12.7-11.34,22-3.14,2.38,2.1,5.33,3.62,7.45,5.94S181.92,243.35,182.82,244.81Zm-28.17-6.74,18.75,14.38c5.25-6,5.11-7.45-.81-12-2.26-1.72-4.51-3.45-6.77-5.19C160.38,231.11,158.33,231.58,154.65,238.07Z"/><path d="M181,227.61l7.31,5.68c2.18-2.83,4.28-5.52,6.33-8.23,1.26-1.67,2.68-3.15,4.78-1.5,1.9,1.51,1,3.2-.23,4.77-2.51,3.24-5,6.48-7.48,9.77-1.64,2.22-3.31,2.35-5.48.67-7.28-5.68-14.62-11.27-22-16.87-2-1.55-2.29-3.18-.68-5.22,2.68-3.4,5.27-6.88,7.91-10.3,1.18-1.54,2.87-2.49,4.27-.85a4.44,4.44,0,0,1,.1,4.11c-1.92,3.08-4.3,5.86-6.67,9l7.3,5.56c1.43-1.84,2.53-3.78,4.14-5.12,1.07-.88,3.21-1.63,4.24-1.14,1.9.91,1.37,2.83.19,4.37C183.76,224,182.45,225.69,181,227.61Z"/><path d="M185.35,190.69c3.17,1.11,5.86,2.05,8.54,3,6.76,2.42,13.5,4.88,20.27,7.26,2,.71,3.8,1.64,2.93,4.1-.81,2.26-2.74,1.9-4.61,1.29-6.29-2-6.36-2.08-10,3.52a4.35,4.35,0,0,0,0,3.47c.58,1.45,2.1,2.56,2.52,4,.35,1.25-.28,2.77-.47,4.17-1.3-.29-3.2-.15-3.79-1-6-8.33-11.82-16.78-17.57-25.28a3.56,3.56,0,0,1-.11-3.09C183.41,191.39,184.71,191.06,185.35,190.69Zm12.32,16,3.41-4.46-8.56-3C194.52,202.12,195.93,204.16,197.67,206.69Z"/><path d="M219.29,192.87c2.37-3.07,4.53-5.85,6.66-8.64,1.17-1.53,2.58-2.46,4.35-1.17s1.38,2.89.17,4.45q-4,5.15-7.89,10.33c-1.54,2-3.19,2.21-5.24.62-7.29-5.66-14.64-11.25-22-16.88-1.56-1.2-2.87-2.58-1.27-4.55s3.21-1,4.77.19C205.57,182.35,212.26,187.49,219.29,192.87Z"/><path d="M229.1,170.18a9.76,9.76,0,0,1-9.77-9.76,9.89,9.89,0,1,1,9.77,9.76Zm4.35-9.61a4.31,4.31,0,0,0-4.35-4.44,4.08,4.08,0,0,0-4.15,4.15,4.25,4.25,0,0,0,8.5.29Z"/><path d="M151.05,138.54c-.69,1.16-1.14,2.07-1.72,2.88q-14,19.56-28.08,39.1c-1.16,1.62-2.43,3.41-4.68,1.85s-1.17-3.29.05-5c9.44-13.11,18.83-26.27,28.37-39.32a6.08,6.08,0,0,1,3.88-1.84C149.46,136.14,150.27,137.66,151.05,138.54Z"/><path d="M144.65,183.24a9.69,9.69,0,0,1-9.65-9.82,9.93,9.93,0,0,1,10-9.91,10.19,10.19,0,0,1,9.76,9.93A9.92,9.92,0,0,1,144.65,183.24Zm4.35-9.63c-.1-2.49-1.27-4.05-3.85-4.29a4.12,4.12,0,0,0-4.58,4,4.27,4.27,0,0,0,4.23,4.39A4.07,4.07,0,0,0,149,173.61Z"/><path d="M131,145.05A10,10,0,0,1,121,155a10.14,10.14,0,0,1-9.75-9.92,9.91,9.91,0,0,1,10.06-9.84A9.8,9.8,0,0,1,131,145.05Zm-9.77,4.19a4.1,4.1,0,0,0,4.16-4.1,4.32,4.32,0,0,0-4.31-4.35,4.26,4.26,0,0,0-4.12,4.5A4,4,0,0,0,121.2,149.24Z"/></svg>