<svg id="Layer_1" data-name="Layer 1" xmlns="http://www.w3.org/2000/svg" viewBox="0 0 360 360"><defs><style>.cls-1{fill:#272829;fill-rule:evenodd;}</style></defs><title>Artboard 1</title><path class="cls-1" d="M135.47,232.51h0m0,0c-14.29-13-28.57-27.2-41.76-41.35,12.09-38.08,63.73-37,75.82-75.08,13.19,14.15,27.47,27.21,41.75,41.35C199.2,195.52,147.55,194.43,135.47,232.51ZM216.78,152,175,109.55c-2.19-2.17-5.49-2.17-7.69-2.17-2.2,1.09-3.29,1.09-4.39,2.17s-1.1,2.18-2.2,4.36q-1.65,8.16-9.89,16.32c-6.59,5.44-15.38,10.88-24.17,16.32S108,157.43,99.21,165.05A77,77,0,0,0,84.92,189c-1.1,2.17,0,5.44,2.2,7.61L130,239c1.1,2.18,4.4,2.18,7.69,2.18,1.1-1.09,2.2-1.09,3.3-2.18s2.2-2.17,2.2-4.35a45.52,45.52,0,0,1,9.89-15.23c6.59-6.53,15.38-12,24.17-17.41,9.89-5.45,19.78-10.89,27.47-18.5S216.78,169.4,219,159.61C220.08,157.43,219,154.17,216.78,152Z"/><path class="cls-1" d="M164,182h0m0,0c-1.1,0-1.1,1.1-2.2,1.1a47.72,47.72,0,0,1-6.59-7.69h2.2c0-1.1,1.1-1.1,2.19-1.1h1.1a3.84,3.84,0,0,1,2.2,1.1c1.1,1.1,1.1,1.1,1.1,2.2V182Zm-19.79-8.79c-2.2,0-3.29,0-3.29-1.1l-1.1-1.1v-4.4c1.1,0,1.1-1.1,2.19-2.2,1.1,2.2,3.3,4.4,5.5,7.7C146.45,172.1,145.35,173.2,144.25,173.2Zm23.09-3.3c-1.1-1.1-3.3-1.1-4.4-2.2h-4.39a4,4,0,0,0-3.3,1.1c-2.2,0-3.3,1.1-4.4,1.1l-7.7-7.7c1.1,0,2.2-1.09,3.3-1.09h3.3c1.1,1.09,1.1,1.09,2.2,1.09s1.1,0,2.2-1.09l1.1-1.1c0-1.1-1.1-2.2-1.1-3.3a4,4,0,0,0-3.3-1.1h-4.4c-1.1,0-2.2,1.1-3.3,1.1-1.1,1.1-2.19,1.1-3.29,2.2l-1.1-1.1h-1.1l-1.1,1.1v2.2h1.1a8.28,8.28,0,0,0-2.2,4.39,8.32,8.32,0,0,0-1.1,4.4c-1.1,2.2,0,3.3,0,4.4s1.1,2.2,2.2,3.3a15.89,15.89,0,0,0,7.69,2.19c2.2,0,5.5-1.09,8.8-2.19,2.2,2.19,4.4,5.49,6.59,7.69,0,1.1-1.09,1.1-2.19,2.2h-2.2c-1.1-1.1-1.1-1.1-2.2-1.1a1.08,1.08,0,0,0-1.1-1.1c-1.1,0-1.1-1.1-2.2-1.1l-1.1,1.1c-1.1,1.1-1.1,1.1-1.1,2.2s0,2.2,1.1,2.2a2.37,2.37,0,0,0,2.2,2.2c1.1,1.1,2.2,1.1,4.4,1.1a8.27,8.27,0,0,0,4.39-1.1c1.1,0,2.2-1.1,4.4-2.2a3.84,3.84,0,0,0,2.2,1.1c0,1.1,0,1.1,1.1,1.1a1.08,1.08,0,0,0,1.1-1.1v-2.2a2.37,2.37,0,0,1-2.2-2.2c1.1-1.1,2.2-2.2,2.2-4.4a8.31,8.31,0,0,0,2.2-4.39c0-1.1,0-3.3-1.1-4.4C169.54,172.1,168.44,171,167.34,169.9Z"/><path class="cls-1" d="M146.78,200.22h0m0,0h0a49.17,49.17,0,0,1-8,6.48c-2.28,2.15-4.57,4.31-5.71,7.55l-3.43,3.23a3.84,3.84,0,0,0,1.14,3.24h2.29a1.08,1.08,0,0,1,1.14-1.08l2.29-3.23c1.14-2.16,3.42-4.32,5.71-6.48a49,49,0,0,1,8-6.47,2,2,0,0,0,0-3.24Z"/><path class="cls-1" d="M161.31,139.81h0m0,0c-2.16,2.17-4.32,4.34-6.47,5.43v1.08c-1.08,0-1.08,2.17,0,2.17,0,1.09,1.08,1.09,2.15,0,3.24-1.08,5.4-3.25,7.56-6.51l6.47-6.51,2.16-4.34c1.08,0,1.08-2.17,0-2.17-1.08-1.08-2.16-1.08-2.16,0h-1.08l-2.16,4.34Z"/></svg>