<svg id="Layer_1" data-name="Layer 1" xmlns="http://www.w3.org/2000/svg" viewBox="0 0 360 360"><defs><style>.cls-1{fill-rule:evenodd;}</style></defs><title>Artboard 1_2</title><path class="cls-1" d="M204.74,193.48a8.72,8.72,0,1,1,8.72-8.72A8.72,8.72,0,0,1,204.74,193.48Zm-27.91,0a8.72,8.72,0,1,1,8.72-8.72A8.71,8.71,0,0,1,176.83,193.48Zm-27.91,0a8.72,8.72,0,1,1,8.72-8.72A8.71,8.71,0,0,1,148.92,193.48ZM230.2,142.9H123.45a6,6,0,0,0-5.93,6h0V221a6,6,0,0,0,5.93,6h65.24l23.72,24V227H230.2a6,6,0,0,0,5.93-6V148.9a6,6,0,0,0-5.93-6Z"/></svg>