<svg id="Layer_1" data-name="Layer 1" xmlns="http://www.w3.org/2000/svg" viewBox="0 0 360 360"><defs><style>.cls-1{fill-rule:evenodd;}</style></defs><title>Artboard 1_1</title><path class="cls-1" d="M234.59,199.9H219.68V197a1.68,1.68,0,0,1,.81-1.45,11.19,11.19,0,0,1,3.68-1.78,9.9,9.9,0,0,1,6.09,0,10.59,10.59,0,0,1,3.53,1.78,1.93,1.93,0,0,1,.8,1.45Zm-20.35-6.46a9.24,9.24,0,0,0,.48,2.91L200,204.09a23.55,23.55,0,0,0-7.69-8.71l13.14-24.7a18.35,18.35,0,0,0,6.57,1.13,31.25,31.25,0,0,0,3.85-.33l4.16,11.3A11.68,11.68,0,0,0,214.24,193.44Zm-22.76,34.87H163.76V223a3.17,3.17,0,0,1,1.44-2.74,26.75,26.75,0,0,1,6.73-3.39,21,21,0,0,1,11.54,0,17.55,17.55,0,0,1,6.73,3.39,3.87,3.87,0,0,1,1.44,2.74Zm-6.89-21.15a7,7,0,0,1-7.05,6.94,6.94,6.94,0,0,1,0-13.88h.16A6.86,6.86,0,0,1,184.59,207.16Zm-27.24-6-14.74-7.75a21.78,21.78,0,0,0,1-6.46,20,20,0,0,0-3.69-11.62l18-17.6a12.89,12.89,0,0,0,17.79-4.2,15.89,15.89,0,0,0,1.12-2.42l14.9,1.62a20.2,20.2,0,0,0,7.85,14.85l-13.14,24.7A24.4,24.4,0,0,0,157.35,201.19Zm-15.7,32.93a13.27,13.27,0,0,0-7.86-3.71l-4-24.22a19.84,19.84,0,0,0,9.61-6.94l14.91,7.91A24.51,24.51,0,0,0,155.59,227Zm-12.82,4.52a3.69,3.69,0,1,1,3.68,3.72C130.59,242.52,129,240.74,128.83,238.64ZM140,249.94h-14.9V247a1.68,1.68,0,0,1,.8-1.45,11,11,0,0,1,3.69-1.78,9.9,9.9,0,0,1,6.09,0,10.27,10.27,0,0,1,3.52,1.78A1.91,1.91,0,0,1,140,247Zm-27.72-52.63V193a3.12,3.12,0,0,1,1.12-2.27,17.18,17.18,0,0,1,5.45-2.58,14.86,14.86,0,0,1,4.65-.64,21.82,21.82,0,0,1,4.65.64,14.44,14.44,0,0,1,5.44,2.75,3.06,3.06,0,0,1,1.13,2.26v4.36Zm11.22-22.76a5.65,5.65,0,1,1-5.61,5.65A5.8,5.8,0,0,1,123.54,174.55Zm33.65-24.38a1.7,1.7,0,0,1,.8-1.45,10.54,10.54,0,0,1,3.69-1.61,9.76,9.76,0,0,1,3-.49,9.87,9.87,0,0,1,3.05.49,10.25,10.25,0,0,1,3.52,1.77,1.93,1.93,0,0,1,.8,1.45v2.91H157.35v-3.07Zm7.53-12.11a3.72,3.72,0,1,1-3.68,3.72A3.74,3.74,0,0,1,164.72,138.06Zm35.74,19.38a3.08,3.08,0,0,1,1.12-2.26,17,17,0,0,1,5.44-2.59,14.9,14.9,0,0,1,4.65-.64,21.73,21.73,0,0,1,4.65.64,14.71,14.71,0,0,1,5.45,2.75,3.08,3.08,0,0,1,1.12,2.26V162H200.46ZM211.83,139a5.65,5.65,0,1,1-5.61,5.65A5.6,5.6,0,0,1,211.83,139Zm15.39,46a3.72,3.72,0,1,1-3.69,3.72A3.64,3.64,0,0,1,227.22,185Zm0-4.84h-1.45l-4.16-11.3a20.4,20.4,0,0,0,7.69-27.45,20.08,20.08,0,0,0-27.24-7.74A19.66,19.66,0,0,0,192.6,146l-14.9-1.62a13,13,0,0,0-25.8,1.94,14.13,14.13,0,0,0,1.76,6.62l-17.94,17.76a19.47,19.47,0,0,0-11.86-4,20.18,20.18,0,0,0,0,40.36l4,24.22a13.17,13.17,0,0,0-6.73,17.27,13,13,0,0,0,17.14,6.78,13.23,13.23,0,0,0,7.37-15.82l14.1-7.43a24.85,24.85,0,0,0,35.1,1.78A25.19,25.19,0,0,0,203,215.4a21.4,21.4,0,0,0-.64-5.49l15.54-8.08A12.91,12.91,0,0,0,236.35,203a13.14,13.14,0,0,0,1.12-18.56A16,16,0,0,0,227.22,180.2Z"/></svg>